<svg xmlns="http://www.w3.org/2000/svg" viewBox="0 0 64 64" role="img" aria-labelledby="stripeTitle">
  <title id="stripeTitle">Stripe</title>
  <rect width="64" height="64" rx="16" fill="#635BFF"/>
  <path
    fill="#fff"
    d="M24.3 20.8c0-3.7 3.2-6.4 8.8-6.4 3.6 0 7.4.9 10.1 2.2l-1.6 7.1c-2.8-1.2-5.5-1.9-8.3-1.9-2.1 0-3.1.6-3.1 1.8 0 1.3 1.6 2.1 5 3.2 5.9 1.9 9.6 4.2 9.6 9.4 0 5.8-4.6 9-11.6 9-4.3 0-8.7-1.1-11.7-2.9l1.7-7.3c3.1 1.8 6.4 2.8 9.8 2.8 2.4 0 3.6-.7 3.6-2 0-1.4-1.3-2.3-4.8-3.4-6.2-2-9.5-4.8-9.5-9.6Z"
  />
</svg>
